<svg width="100" height="100" xmlns="http://www.w3.org/2000/svg">
  <defs>
    <pattern id="memePattern" patternUnits="userSpaceOnUse" width="100" height="100">
      <rect x="0" y="0" width="100" height="100" fill="none" />
      
      <!-- Dashed Circles -->
      <circle cx="10" cy="10" r="5" fill="none" stroke="#FF69B4" stroke-width="1.5" stroke-dasharray="2,2" opacity="0.5" />
      <circle cx="90" cy="90" r="8" fill="none" stroke="#FF69B4" stroke-width="1.5" stroke-dasharray="2,2" opacity="0.5" />
      <circle cx="50" cy="50" r="10" fill="none" stroke="#9965de" stroke-width="1.5" stroke-dasharray="2,2" opacity="0.5" />
      
      <!-- Stars -->
      <path d="M80,20 l2,5 l5,0 l-4,3 l2,5 l-5,-3 l-5,3 l2,-5 l-4,-3 l5,0 Z" fill="#FF69B4" opacity="0.6" />
      <path d="M20,75 l1.5,4 l4,0 l-3,2.5 l1.5,4 l-4,-2.5 l-4,2.5 l1.5,-4 l-3,-2.5 l4,0 Z" fill="#9965de" opacity="0.6" />
      
      <!-- Emoji-like Shapes -->
      <circle cx="30" cy="30" r="3" fill="#FF69B4" opacity="0.7" />
      <circle cx="70" cy="70" r="3" fill="#9965de" opacity="0.7" />
      
      <!-- Dots -->
      <circle cx="40" cy="80" r="1.5" fill="#FF69B4" opacity="0.9" />
      <circle cx="60" cy="40" r="1.5" fill="#9965de" opacity="0.9" />
      <circle cx="15" cy="60" r="1.5" fill="#FF69B4" opacity="0.9" />
      <circle cx="85" cy="25" r="1.5" fill="#9965de" opacity="0.9" />
      
      <!-- Zigzags -->
      <path d="M0,45 l5,-5 l5,5 l5,-5 l5,5 l5,-5" fill="none" stroke="#FF69B4" stroke-width="1" opacity="0.5" />
      <path d="M70,10 l5,-5 l5,5 l5,-5 l5,5 l5,-5" fill="none" stroke="#9965de" stroke-width="1" opacity="0.5" />
    </pattern>
  </defs>
  
  <rect x="0" y="0" width="100" height="100" fill="url(#memePattern)" />
</svg> 